<svg width="145" height="24" viewBox="0 0 145 24" fill="none" xmlns="http://www.w3.org/2000/svg">
<path d="M10.1031 7.496C8.70309 7.496 7.65776 7.96267 6.96709 8.896C6.29509 9.82933 5.95909 11.2853 5.95909 13.264V13.488C5.95909 17.1093 7.33109 18.92 10.0751 18.92H13.5191L10.2151 17.352V13.908L16.5151 16.932C16.9444 16.036 17.1591 14.888 17.1591 13.488V13.264C17.1591 11.2853 16.8138 9.82933 16.1231 8.896C15.4511 7.96267 14.4151 7.496 13.0151 7.496H10.1031ZM12.2311 4.416C14.8631 4.416 16.8511 5.144 18.1951 6.6C19.5578 8.03733 20.2391 10.2213 20.2391 13.152C20.2391 15.28 19.9218 16.988 19.2871 18.276L20.4911 18.836V22.168L17.2431 20.656C16.6084 21.0853 15.8804 21.4213 15.0591 21.664C14.2564 21.888 13.3231 22 12.2591 22H10.8591C5.53909 22 2.87909 19.0787 2.87909 13.236V13.152C2.93509 7.328 5.60443 4.416 10.8871 4.416H12.2311ZM45.5846 19.368C45.2672 20.208 44.7539 20.88 44.0446 21.384C43.3539 21.8693 42.5606 22.112 41.6646 22.112C41.0299 22.112 40.4326 22.0093 39.8726 21.804C39.3312 21.5987 38.8552 21.3093 38.4446 20.936C38.0339 20.5627 37.7072 20.1147 37.4646 19.592C37.2406 19.0507 37.1286 18.4533 37.1286 17.8V8.98C37.1286 7.95333 36.6899 7.44 35.8126 7.44C35.5326 7.44 35.3086 7.53333 35.1406 7.72C34.9912 7.90667 34.8606 8.17733 34.7486 8.532L31.1926 19.368H31.2206C30.9592 20.2267 30.4552 20.8987 29.7086 21.384C28.9806 21.8693 28.1686 22.112 27.2726 22.112C26.6379 22.112 26.0406 22.0093 25.4806 21.804C24.9392 21.5987 24.4632 21.3093 24.0526 20.936C23.6419 20.5627 23.3152 20.1147 23.0726 19.592C22.8486 19.0507 22.7366 18.4533 22.7366 17.8V4.416H26.0126V17.464C26.0126 18.4907 26.4512 19.004 27.3286 19.004C27.6086 19.004 27.8232 18.9107 27.9726 18.724C28.1406 18.5373 28.2806 18.2667 28.3926 17.912L31.9486 7.076C32.2286 6.236 32.7232 5.57333 33.4326 5.088C34.1606 4.584 34.9726 4.332 35.8686 4.332C36.5032 4.332 37.0912 4.43467 37.6326 4.64C38.1926 4.84533 38.6779 5.13467 39.0886 5.508C39.4992 5.88133 39.8166 6.33867 40.0406 6.88C40.2832 7.40267 40.4046 7.99067 40.4046 8.644V17.464C40.4046 18.4907 40.8432 19.004 41.7206 19.004C42.0006 19.004 42.2152 18.9107 42.3646 18.724C42.5139 18.5373 42.6539 18.2667 42.7846 17.912L47.4606 4.416H50.9326L45.5846 19.368ZM52.7873 4.416H55.8673V22H52.7873V4.416ZM61.4728 22H58.3928V4.416H61.4728V10.016L73.1208 4.248V7.776L61.3888 13.208L73.1208 18.752V22.168L61.4728 16.372V22ZM98.4947 19.368C98.1774 20.208 97.6641 20.88 96.9547 21.384C96.2641 21.8693 95.4707 22.112 94.5747 22.112C93.9401 22.112 93.3427 22.0093 92.7827 21.804C92.2414 21.5987 91.7654 21.3093 91.3547 20.936C90.9441 20.5627 90.6174 20.1147 90.3747 19.592C90.1507 19.0507 90.0387 18.4533 90.0387 17.8V8.98C90.0387 7.95333 89.6001 7.44 88.7227 7.44C88.4427 7.44 88.2187 7.53333 88.0507 7.72C87.9014 7.90667 87.7707 8.17733 87.6587 8.532L84.1027 19.368H84.1307C83.8694 20.2267 83.3654 20.8987 82.6187 21.384C81.8907 21.8693 81.0787 22.112 80.1827 22.112C79.5481 22.112 78.9507 22.0093 78.3907 21.804C77.8494 21.5987 77.3734 21.3093 76.9627 20.936C76.5521 20.5627 76.2254 20.1147 75.9827 19.592C75.7587 19.0507 75.6467 18.4533 75.6467 17.8V4.416H78.9227V17.464C78.9227 18.4907 79.3614 19.004 80.2387 19.004C80.5187 19.004 80.7334 18.9107 80.8827 18.724C81.0507 18.5373 81.1907 18.2667 81.3027 17.912L84.8587 7.076C85.1387 6.236 85.6334 5.57333 86.3427 5.088C87.0707 4.584 87.8827 4.332 88.7787 4.332C89.4134 4.332 90.0014 4.43467 90.5427 4.64C91.1027 4.84533 91.5881 5.13467 91.9987 5.508C92.4094 5.88133 92.7267 6.33867 92.9507 6.88C93.1934 7.40267 93.3147 7.99067 93.3147 8.644V17.464C93.3147 18.4907 93.7534 19.004 94.6307 19.004C94.9107 19.004 95.1254 18.9107 95.2747 18.724C95.4241 18.5373 95.5641 18.2667 95.6947 17.912L100.371 4.416H103.843L98.4947 19.368ZM105.698 4.416H108.778V22H105.698V4.416ZM114.383 11.724H120.515C121.094 11.724 121.57 11.5187 121.943 11.108C122.335 10.6787 122.531 10.1747 122.531 9.596C122.531 9.316 122.475 9.05467 122.363 8.812C122.27 8.55067 122.13 8.32667 121.943 8.14C121.756 7.93467 121.542 7.776 121.299 7.664C121.075 7.552 120.823 7.496 120.543 7.496H114.383V11.724ZM120.067 4.416C121.038 4.416 121.868 4.556 122.559 4.836C123.268 5.09733 123.847 5.47067 124.295 5.956C124.743 6.42267 125.07 6.97333 125.275 7.608C125.499 8.224 125.611 8.88667 125.611 9.596C125.611 10.212 125.508 10.828 125.303 11.444C125.116 12.0413 124.799 12.5827 124.351 13.068C123.903 13.5533 123.324 13.9453 122.615 14.244C121.924 14.5427 121.075 14.692 120.067 14.692H118.639L125.751 18.668V22.364L114.383 15.448V22H111.303V4.416H120.067ZM141.874 7.496H132.634C132.093 7.496 131.626 7.70133 131.234 8.112C130.842 8.52267 130.646 8.99867 130.646 9.54C130.646 10.1187 130.833 10.6133 131.206 11.024C131.579 11.416 132.065 11.612 132.662 11.612H141.874V14.692H132.634C132.093 14.692 131.626 14.8973 131.234 15.308C130.842 15.7187 130.646 16.1947 130.646 16.736C130.646 17.3893 130.833 17.9213 131.206 18.332C131.579 18.724 132.065 18.92 132.662 18.92H141.874V22H133.11C132.083 22 131.215 21.8507 130.506 21.552C129.815 21.2533 129.246 20.8613 128.798 20.376C128.369 19.872 128.051 19.312 127.846 18.696C127.659 18.08 127.566 17.4453 127.566 16.792C127.566 16.1013 127.715 15.4293 128.014 14.776C128.313 14.104 128.798 13.5627 129.47 13.152C128.779 12.7413 128.285 12.2 127.986 11.528C127.706 10.856 127.566 10.212 127.566 9.596C127.566 8.868 127.669 8.18667 127.874 7.552C128.079 6.91733 128.397 6.36667 128.826 5.9C129.274 5.43333 129.843 5.06933 130.534 4.808C131.243 4.54667 132.102 4.416 133.11 4.416H141.874V7.496Z" fill="#00B2EB"/>
</svg>
