<svg width="49" height="43" viewBox="0 0 49 43" fill="none" xmlns="http://www.w3.org/2000/svg">
<path d="M1.33244 8.27389H47.9991" stroke="#111111" stroke-width="2" stroke-miterlimit="10" stroke-linecap="square"/>
<path d="M1.33244 15.5466H47.9991" stroke="#111111" stroke-width="2" stroke-miterlimit="10" stroke-linecap="square"/>
<path d="M20.4234 30.0921H4.51426C2.75684 30.0921 1.33244 28.8712 1.33244 27.3648V3.72843C1.33244 2.22207 2.75684 1.00116 4.51426 1.00116H33.1506H44.8173C46.5747 1.00116 47.9991 2.22207 47.9991 3.72843V23.7284" stroke="#111111" stroke-width="2" stroke-miterlimit="10" stroke-linecap="square"/>
<path d="M9.81779 22.8193H20.4244" stroke="#111111" stroke-width="2" stroke-miterlimit="10" stroke-linecap="square"/>
<path d="M43.7566 28.2739H26.7869V41.0011H43.7566V28.2739Z" stroke="#00B2EB" stroke-width="2" stroke-miterlimit="10" stroke-linecap="square"/>
<path d="M31.0292 28.2739V24.6375C31.0292 22.6375 32.9384 21.0012 35.2719 21.0012C37.6053 21.0012 39.5145 22.6375 39.5145 24.6375V28.2739" stroke="#00B2EB" stroke-width="2" stroke-miterlimit="10" stroke-linecap="square"/>
<path d="M35.2717 33.7285V35.5466" stroke="#00B2EB" stroke-width="2" stroke-miterlimit="10" stroke-linecap="square"/>
</svg>
