<svg width="57" height="41" viewBox="0 0 57 41" fill="none" xmlns="http://www.w3.org/2000/svg">
<path d="M36.9715 16.7587H28.3868V8.2738" stroke="#666666" stroke-width="2" stroke-miterlimit="10"/>
<path d="M28.3871 25.2435C33.1283 25.2435 36.9718 21.4447 36.9718 16.7587C36.9718 12.0726 33.1283 8.2738 28.3871 8.2738C23.6459 8.2738 19.8024 12.0726 19.8024 16.7587C19.8024 21.4447 23.6459 25.2435 28.3871 25.2435Z" stroke="#00B2EB" stroke-width="2" stroke-miterlimit="10" stroke-linecap="square"/>
<path d="M6.31378 25.2436V5.84964C6.31378 3.17207 8.51011 1.00116 11.219 1.00116H45.5559C48.2648 1.00116 50.4611 3.17207 50.4611 5.84964V25.2436" stroke="#666666" stroke-width="2" stroke-miterlimit="10" stroke-linecap="square"/>
<path d="M36.9713 31.3042V33.7285H19.8029V31.3042H1.4082V34.9406C1.4082 37.6182 3.60453 39.7891 6.31346 39.7891H50.4608C53.1697 39.7891 55.3661 37.6182 55.3661 34.9406V31.3042H36.9713Z" stroke="#666666" stroke-width="2" stroke-miterlimit="10" stroke-linecap="square"/>
</svg>
